<?xml version="1.0" encoding="UTF-8"?>
<svg version="1.1" xmlns="http://www.w3.org/2000/svg" width="620" height="1002">
<path d="M0 0 C0.84069283 -0.00297112 1.68138565 -0.00594224 2.54755402 -0.0090034 C5.35145575 -0.01764243 8.15531455 -0.01919459 10.95922852 -0.02069092 C12.97530711 -0.02532259 14.99138483 -0.03034772 17.00746155 -0.03573608 C22.4768877 -0.04883077 27.94630159 -0.05529963 33.41574097 -0.05974674 C36.83795332 -0.06268295 40.26016237 -0.06678885 43.68237305 -0.07125092 C54.40434821 -0.08491977 65.12631576 -0.09458873 75.84829903 -0.09845281 C88.19737775 -0.10292847 100.54634551 -0.12045615 112.89539051 -0.1494534 C122.45832194 -0.17112358 132.02122227 -0.18115997 141.58417797 -0.18249393 C147.28719035 -0.18353837 152.99009834 -0.18936895 158.69308472 -0.20731354 C164.06443637 -0.22388608 169.43560618 -0.22590544 174.80697441 -0.21717453 C176.76800463 -0.21640898 178.729045 -0.22068252 180.69005013 -0.23063278 C209.24157291 -0.36689674 234.33275148 7.46196141 255.40063477 27.14044189 C257.38063477 29.12044189 259.36063477 31.10044189 261.40063477 33.14044189 C261.73063477 23.57044189 262.06063477 14.00044189 262.40063477 4.14044189 C326.09063477 4.14044189 389.78063477 4.14044189 455.40063477 4.14044189 C455.40063477 255.27044189 455.40063477 506.40044189 455.40063477 765.14044189 C391.71063477 765.14044189 328.02063477 765.14044189 262.40063477 765.14044189 C262.07063477 754.25044189 261.74063477 743.36044189 261.40063477 732.14044189 C257.77063477 735.77044189 254.14063477 739.40044189 250.40063477 743.14044189 C236.36336242 753.88325236 221.73743964 760.7041435 204.40063477 764.14044189 C203.51357062 764.31680553 202.62650648 764.49316917 201.71256161 764.67487717 C197.76959593 765.22914839 193.8936749 765.2853093 189.92152405 765.28088379 C188.66176645 765.28534047 188.66176645 765.28534047 187.3765592 765.28988719 C184.56955142 765.29854086 181.76258645 765.30007964 178.95556641 765.30157471 C176.93963531 765.30620539 174.92370509 765.31123039 172.90777588 765.31661987 C167.43415841 765.32972528 161.9605532 765.33618568 156.4869225 765.34063053 C153.06253791 765.3435654 149.63815664 765.34767108 146.21377373 765.3521347 C135.48645578 765.36580725 124.75914546 765.37547404 114.0318194 765.3793366 C101.67424059 765.38381121 89.31677272 765.40133245 76.95922762 765.43033719 C67.39207011 765.45200787 57.82494368 765.46204381 48.2577619 765.46337771 C42.55138119 765.46442226 36.84510481 765.47025469 31.13875008 765.48819733 C25.76330784 765.50477039 20.3880473 765.50678897 15.0125885 765.49805832 C13.04994658 765.49729276 11.08729451 765.50156645 9.12467766 765.51151657 C-19.42833692 765.64767279 -44.53775489 757.81936031 -65.59936523 738.14044189 C-66.96061523 736.88360596 -66.96061523 736.88360596 -68.34936523 735.60137939 C-91.97943816 712.90786424 -104.93539292 678.76518868 -105.68843269 646.30062294 C-105.73460686 641.71768756 -105.72325852 637.13490797 -105.71289062 632.55181885 C-105.71258379 630.76828863 -105.71271863 628.9847583 -105.71325588 627.20122814 C-105.71348034 622.45314946 -105.70771195 617.70509631 -105.70064545 612.95702362 C-105.69492296 608.49094061 -105.69468083 604.0248636 -105.69396973 599.55877686 C-105.68873598 586.52349519 -105.67477473 573.48821822 -105.66186523 560.45294189 C-105.64124023 531.30981689 -105.62061523 502.16669189 -105.59936523 472.14044189 C-41.90936523 472.14044189 21.78063477 472.14044189 87.40063477 472.14044189 C87.65063477 541.39044189 87.65063477 541.39044189 87.69848633 563.27032471 C87.73169911 569.73283387 87.73169911 569.73283387 87.77020264 576.1953125 C87.78723376 579.07768992 87.79306521 581.95985856 87.79217529 584.84228516 C87.79140526 588.51766807 87.80964327 592.19249265 87.84172392 595.86773062 C87.85428263 597.85479056 87.84726399 599.84194458 87.83951187 601.82902908 C87.85341839 603.00165676 87.86732491 604.17428444 87.88165283 605.38244629 C87.88534 606.40379292 87.88902718 607.42513954 87.89282608 608.47743607 C88.54069836 611.87495115 89.65222423 613.09087804 92.40063477 615.14044189 C96.02713427 615.22960344 96.02713427 615.22960344 99.40063477 614.14044189 C101.64411954 610.77521473 101.65459415 609.65834234 101.6680603 605.72184753 C101.67659027 604.59626434 101.68512024 603.47068115 101.69390869 602.31098938 C101.69300232 601.07513596 101.69209595 599.83928253 101.69116211 598.565979 C101.69787933 597.26487183 101.70459656 595.96376465 101.71151733 594.62322998 C101.72920316 591.05051733 101.73387405 587.47790046 101.73514891 583.90514827 C101.73657067 581.67029688 101.74084094 579.43546981 101.74614334 577.20062447 C101.76465867 569.39547304 101.77281289 561.59038995 101.77124023 553.78521729 C101.7700414 546.52514514 101.79108877 539.26537153 101.82272756 532.00537485 C101.84895509 525.76315736 101.85960469 519.52103689 101.85832942 513.27876478 C101.85782128 509.55490198 101.8634205 505.8313039 101.88468552 502.10749626 C101.90780438 497.94501569 101.89850762 493.78319398 101.88647461 489.6206665 C101.89771362 488.3989827 101.90895264 487.17729889 101.92053223 485.91859436 C101.83849343 474.71808301 98.6941198 466.58915978 91.40063477 458.14044189 C90.90692383 457.52942627 90.41321289 456.91841064 89.90454102 456.28887939 C78.54555001 443.5395269 60.50128734 435.85384538 45.80688477 427.71856689 C39.55204567 424.24576485 33.37795975 420.64499262 27.21313477 417.01544189 C18.71882752 412.02351362 10.14330941 407.22012689 1.47583008 402.53619385 C-6.49631971 398.22117102 -14.36491033 393.73863911 -22.22436523 389.22247314 C-26.98605419 386.48679127 -31.76279851 383.77851059 -36.54516602 381.0791626 C-38.52626263 379.96089548 -40.50642028 378.84096315 -42.4855957 377.71929932 C-46.53185661 375.4270638 -50.57822518 373.14025882 -54.66967773 370.92950439 C-76.75660884 358.82369205 -95.5610733 341.55980959 -103.72436523 317.29669189 C-105.31123338 311.57263179 -105.74689314 306.10706048 -105.73980713 300.18850708 C-105.74277825 299.40528269 -105.74574937 298.6220583 -105.74881053 297.81509984 C-105.75745834 295.19941515 -105.75900251 292.58377644 -105.76049805 289.96807861 C-105.76512935 288.08833723 -105.77015443 286.20859678 -105.77554321 284.32885742 C-105.78864746 279.22472718 -105.79510944 274.12061009 -105.79955387 269.01646566 C-105.80249049 265.81985519 -105.80659661 262.62324825 -105.81105804 259.42663956 C-105.82473373 249.40357285 -105.83439752 239.38051431 -105.83825994 229.35743892 C-105.84272758 217.82964403 -105.86021482 206.30196849 -105.88926053 194.77420986 C-105.91098127 185.83966519 -105.92096988 176.90515383 -105.92230105 167.97058308 C-105.92334256 162.64689548 -105.92910827 157.32332003 -105.94712067 151.99966049 C-105.96377973 146.97795334 -105.96567177 141.95644046 -105.95698166 136.93471527 C-105.95622046 135.10801543 -105.96043014 133.28130438 -105.97043991 131.45463181 C-106.17372552 91.98869881 -94.41305778 56.61636522 -66.59936523 28.14044189 C-48.76905723 10.50215259 -25.18450094 -0.02816442 0 0 Z M-47.78686523 55.51544189 C-67.63124436 78.90630644 -73.08865232 105.60121832 -73.00341797 135.48834229 C-73.00913975 137.33696907 -73.01611088 139.18559233 -73.0242157 141.03421021 C-73.04194883 145.99026227 -73.04101843 150.94613544 -73.03527331 155.90220952 C-73.03215681 160.05770181 -73.03829999 164.21316094 -73.04431206 168.36864847 C-73.05828615 178.17045673 -73.05685164 187.97217766 -73.04541016 197.77398682 C-73.03389564 207.86092132 -73.04807668 217.94759096 -73.07480663 228.03449064 C-73.09698359 236.73136763 -73.10359769 245.42816155 -73.09773022 254.12506479 C-73.09436911 259.3040586 -73.09672127 264.48288209 -73.11398125 269.66185188 C-73.12948361 274.52372633 -73.12545843 279.3852074 -73.1066761 284.2470665 C-73.10300144 286.02475728 -73.10606576 287.80247748 -73.11656189 289.58014107 C-73.19361209 303.71318112 -71.12361623 313.3371076 -61.59936523 324.14044189 C-60.75631836 325.12464111 -60.75631836 325.12464111 -59.89624023 326.12872314 C-49.66203604 337.23060986 -35.39595959 344.03826977 -22.27514648 351.07403564 C-16.85185361 353.98673308 -11.49822839 357.00941956 -6.16186523 360.07794189 C-4.41449806 361.08189802 -2.66710202 362.08580391 -0.91967773 363.08966064 C-0.04601562 363.59158936 0.82764648 364.09351807 1.7277832 364.61065674 C6.29463033 367.22445507 10.87949685 369.80623958 15.46313477 372.39044189 C24.68017294 377.58951467 33.86997746 382.83532413 43.05212402 388.09567261 C51.57604072 392.9773044 60.13279103 397.79593643 68.71313477 402.57794189 C95.70147297 417.67051872 122.12427636 433.06904329 132.52563477 463.98419189 C133.92910817 469.04672095 134.52564093 473.84849969 134.54107666 479.09616089 C134.5467868 480.26504852 134.55249695 481.43393616 134.55838013 482.63824463 C134.56005692 484.54126343 134.56005692 484.54126343 134.56176758 486.48272705 C134.5664012 487.843436 134.57142659 489.20414367 134.57681274 490.56484985 C134.58988867 494.25113267 134.59637259 497.9373973 134.6008234 501.62369967 C134.60376266 503.9317769 134.60786911 506.23984927 134.61232758 508.54792404 C134.6259915 515.78382837 134.63566286 523.01972144 134.63952947 530.25563776 C134.64400391 538.58118376 134.66152786 546.90656507 134.69053006 555.23206103 C134.71222101 561.68497345 134.72223773 568.13783979 134.72357059 574.59078825 C134.72461357 578.43647127 134.73041211 582.28199926 134.7483902 586.12764359 C134.76499914 589.75074659 134.76696507 593.37358016 134.75825119 596.99670792 C134.75712681 598.94098133 134.77074573 600.88524632 134.78500366 602.82946777 C134.71869096 616.94903702 131.74345786 627.47344599 122.08813477 637.89044189 C113.67531454 645.87706197 104.01453096 648.68335888 92.62329102 648.45294189 C79.47083836 647.17755255 70.58147215 641.36992271 62.16235352 631.57794189 C57.46575786 625.07976964 55.30672783 617.36653948 55.24241638 609.40110779 C55.23264235 608.47899852 55.22286833 607.55688925 55.21279812 606.60683727 C55.20414274 605.10209583 55.20414274 605.10209583 55.1953125 603.56695557 C55.18527978 602.48592465 55.17524706 601.40489374 55.16491032 600.29110432 C55.13356467 596.79689479 55.10877027 593.30267389 55.08422852 589.80841064 C55.06582145 587.64910516 55.04698458 585.48980329 55.02770996 583.33050537 C54.95930759 575.32969373 54.89922581 567.3288127 54.83813477 559.32794189 C54.69375977 541.44606689 54.54938477 523.56419189 54.40063477 505.14044189 C12.49063477 505.14044189 -29.41936523 505.14044189 -72.59936523 505.14044189 C-72.65769173 530.36797473 -72.65769173 530.36797473 -72.69702148 555.59552002 C-72.70886085 565.89217129 -72.72273329 576.18878968 -72.75024414 586.4854126 C-72.77027584 593.98639831 -72.78310471 601.4873572 -72.78754222 608.98836893 C-72.79013316 612.95437249 -72.79615552 616.92029935 -72.81082535 620.88627815 C-72.82456444 624.63155314 -72.82855551 628.37672101 -72.8255806 632.12201881 C-72.82637928 634.12659713 -72.83705435 636.13116421 -72.84820557 638.13571167 C-72.82222462 649.78045752 -71.86778818 661.52226684 -68.41186523 672.70294189 C-68.19828369 673.40564209 -67.98470215 674.10834229 -67.76464844 674.83233643 C-60.91691969 696.34405999 -46.6665125 715.3072985 -26.59936523 725.89044189 C-17.5066097 730.24350911 -8.42152198 732.29223489 1.62782288 732.28088379 C2.45258934 732.28385491 3.2773558 732.28682603 4.12711519 732.28988719 C6.88895299 732.29855401 9.65074734 732.30008075 12.41259766 732.30157471 C14.39384046 732.30620441 16.37508237 732.31122927 18.35632324 732.31661987 C23.7388923 732.32973355 29.12144889 732.33618713 34.50403142 732.34063053 C37.86959135 732.34356367 41.23514788 732.347669 44.6007061 732.3521347 C55.138474 732.36580857 65.67623414 732.37547507 76.2140103 732.3793366 C88.36334811 732.38381348 100.51257319 732.40134472 112.66187674 732.43033719 C122.06166502 732.4519866 131.46142167 732.46204266 140.86123461 732.46337771 C146.47084319 732.46442365 152.0803458 732.47028613 157.68992805 732.48819733 C162.97178028 732.50473376 168.25344751 732.5068065 173.53531647 732.49805832 C175.4669666 732.49729085 177.3986269 732.50159207 179.33025169 732.51151657 C192.63821408 732.57584517 204.49924853 731.73811971 216.52563477 725.45294189 C217.2044873 725.10263916 217.88333984 724.75233643 218.58276367 724.39141846 C238.90374554 713.59030651 251.01440835 694.39222862 257.80639648 672.99615479 C258.34100038 671.32667072 258.91528336 669.67001735 259.49438477 668.01544189 C260.43385805 665.0350439 261.03417949 662.16318888 261.52563477 659.07794189 C261.69321289 658.07634033 261.86079102 657.07473877 262.03344727 656.04278564 C262.56137734 650.43212457 262.40063477 644.77588579 262.40063477 639.14044189 C273.29063477 639.14044189 284.18063477 639.14044189 295.40063477 639.14044189 C295.40063477 669.83044189 295.40063477 700.52044189 295.40063477 732.14044189 C337.31063477 732.14044189 379.22063477 732.14044189 422.40063477 732.14044189 C422.40063477 502.79044189 422.40063477 273.44044189 422.40063477 37.14044189 C380.49063477 37.14044189 338.58063477 37.14044189 295.40063477 37.14044189 C295.40063477 64.86044189 295.40063477 92.58044189 295.40063477 121.14044189 C279.06563477 121.63544189 279.06563477 121.63544189 262.40063477 122.14044189 C262.07063477 116.86044189 261.74063477 111.58044189 261.40063477 106.14044189 C257.44490108 83.2786281 246.40894261 60.2255002 227.40063477 46.14044189 C219.15942808 40.34635783 211.20244083 36.49766971 201.40063477 34.14044189 C200.68588486 33.96407825 199.97113495 33.78771461 199.23472595 33.60600662 C195.54455811 32.99981159 191.90828879 32.99578521 188.18017578 33 C187.35611488 32.99702888 186.53205399 32.99405776 185.68302155 32.9909966 C182.92351771 32.98232976 180.16405737 32.98080303 177.40454102 32.97930908 C175.42492073 32.97467935 173.44530134 32.96965448 171.46568298 32.96426392 C166.08717888 32.95114972 160.70868727 32.94469644 155.33016968 32.94025326 C151.96661207 32.93731993 148.60305785 32.93321454 145.23950195 32.92874908 C134.70653741 32.91507448 124.17358064 32.9054086 113.64060783 32.90154719 C101.49977006 32.89707149 89.35904516 32.87954607 77.21824169 32.8505466 C67.82353328 32.82888919 58.42885652 32.81884069 49.03412342 32.81750607 C43.4283953 32.81646062 37.82277327 32.81060859 32.21707153 32.79268646 C26.93767852 32.77613637 21.65847055 32.77408384 16.37906075 32.78282547 C14.44944321 32.78359224 12.51981543 32.77930109 10.59022331 32.76936722 C-12.61092861 32.65700345 -31.47959802 37.80506374 -47.78686523 55.51544189 Z " fill="#2063FF" transform="translate(125.599365234375,210.85955810546875)"/>
<path d="M0 0 C9.88965142 7.87244815 14.09828647 15.45955213 17.1640625 27.72265625 C17.1640625 51.81265625 17.1640625 75.90265625 17.1640625 100.72265625 C69.9640625 100.72265625 122.7640625 100.72265625 177.1640625 100.72265625 C177.1640625 168.37265625 177.1640625 236.02265625 177.1640625 305.72265625 C166.2740625 305.72265625 155.3840625 305.72265625 144.1640625 305.72265625 C143.1740625 301.10265625 142.1840625 296.48265625 141.1640625 291.72265625 C140.03724249 288.77558852 138.99304412 286.215502 137.5390625 283.47265625 C137.02508911 282.47335083 137.02508911 282.47335083 136.50073242 281.45385742 C133.24657556 275.3938616 129.08357498 270.51822752 124.1640625 265.72265625 C123.3596875 264.85640625 122.5553125 263.99015625 121.7265625 263.09765625 C108.90044929 251.21003912 93.96772875 242.95930297 78.74682617 234.5859375 C71.11367482 230.38367518 63.54973302 226.07845429 56.0390625 221.66015625 C46.93495726 216.30767659 37.75454806 211.11068132 28.52563477 205.97680664 C21.28823799 201.94022971 14.11965284 197.79855496 6.9765625 193.59765625 C-0.7422163 189.05909262 -8.52027229 184.66598842 -16.3984375 180.41015625 C-56.58347879 158.59541955 -56.58347879 158.59541955 -63.1925106 138.2977314 C-64.30384885 133.85001634 -64.24439168 129.47613772 -64.20825195 124.91381836 C-64.21190262 123.87196884 -64.21555328 122.83011932 -64.21931458 121.75669861 C-64.22737278 118.33762951 -64.21384992 114.91904139 -64.19921875 111.5 C-64.19869962 109.11064148 -64.19921938 106.72128253 -64.20072937 104.33192444 C-64.20063986 99.33474313 -64.19025292 94.33772385 -64.17211914 89.34057617 C-64.1494207 82.94623244 -64.14889251 76.55212498 -64.15563679 70.15775204 C-64.15898339 65.22744154 -64.1523338 60.29718457 -64.14250755 55.36688423 C-64.13866815 53.00944868 -64.1375021 50.65200716 -64.1390934 48.29456902 C-64.13946564 44.99696443 -64.12679957 41.69965909 -64.1105957 38.40209961 C-64.11307312 37.43512146 -64.11555054 36.46814331 -64.11810303 35.47186279 C-64.02071377 23.00790732 -60.33587076 13.08947952 -51.7734375 3.91015625 C-37.6206205 -9.62981888 -15.94561116 -11.46619036 0 0 Z M-30.8359375 30.72265625 C-31.57068729 33.94439729 -31.51957014 37.09724489 -31.48291016 40.390625 C-31.49167175 41.35868073 -31.50043335 42.32673645 -31.50946045 43.3241272 C-31.53144374 46.5199279 -31.51690486 49.7143418 -31.5 52.91015625 C-31.50336842 55.13305934 -31.50822126 57.35596064 -31.51449585 59.57885742 C-31.52186576 64.23601835 -31.51115733 68.89269955 -31.48779297 73.54980469 C-31.45930574 79.51889734 -31.47570898 85.48686595 -31.50565529 91.45591736 C-31.52372468 96.04561835 -31.51797174 100.63505294 -31.50501633 105.22476196 C-31.50168136 107.42558933 -31.50577255 109.62644089 -31.51741409 111.82723999 C-31.53011635 114.90370734 -31.51075316 117.97835563 -31.48291016 121.0546875 C-31.49303131 121.96392975 -31.50315247 122.873172 -31.51358032 123.80996704 C-31.43851894 128.28764637 -31.32207018 130.11949863 -28.42585754 133.71290588 C-27.57118393 134.3761235 -26.71651031 135.03934113 -25.8359375 135.72265625 C-25.14765869 136.32456787 -24.45937988 136.92647949 -23.75024414 137.54663086 C-18.24400288 141.91844982 -12.56215922 145.17297532 -6.2734375 148.28515625 C1.98491298 152.48180386 10.06299296 156.88640614 18.0390625 161.59765625 C26.19151111 166.41190635 34.38881741 171.12243837 42.6640625 175.72265625 C51.88847472 180.85560686 61.02648007 186.1184374 70.12915039 191.46386719 C77.40374057 195.72443432 84.73716417 199.86955468 92.1015625 203.97265625 C95.19352371 205.70131135 98.28479009 207.4311972 101.37548828 209.16210938 C103.11743645 210.13694152 104.86042859 211.10991325 106.60498047 212.08007812 C118.49915716 218.71989285 129.32945032 226.48045033 140.1640625 234.72265625 C141.4840625 235.71265625 142.8040625 236.70265625 144.1640625 237.72265625 C144.1640625 203.40265625 144.1640625 169.08265625 144.1640625 133.72265625 C91.3640625 133.72265625 38.5640625 133.72265625 -15.8359375 133.72265625 C-15.5234375 82.53515625 -15.5234375 82.53515625 -15.38549805 66.37817383 C-15.36877492 61.59487959 -15.36877492 61.59487959 -15.35871887 56.81156921 C-15.35104556 54.68256913 -15.33346939 52.55359067 -15.30805969 50.42472839 C-15.27147321 47.19788929 -15.26640675 43.97237669 -15.26831055 40.74536133 C-15.25032001 39.79841054 -15.23232946 38.85145975 -15.21379375 37.87581348 C-15.24988595 33.30772189 -15.34698154 31.35714031 -18.21516418 27.63529968 C-20.65826247 25.60061928 -20.65826247 25.60061928 -23.3359375 25.09765625 C-27.1084927 26.04079505 -28.45501877 27.66167094 -30.8359375 30.72265625 Z " fill="#2063FF" transform="translate(243.8359375,330.27734375)"/>
<path d="M0 0 C1.40895147 -0.01007065 2.81788933 -0.02222519 4.22680664 -0.0362854 C8.02673343 -0.06742325 11.82602335 -0.0670455 15.62604547 -0.05877972 C18.81156043 -0.05459679 21.99695332 -0.06562648 25.18244714 -0.07642388 C32.70555363 -0.10150203 40.22834585 -0.10048593 47.75146484 -0.08300781 C55.48166078 -0.06550213 63.21082389 -0.09185582 70.94086677 -0.13997436 C77.60540572 -0.17990087 84.26962057 -0.19235622 90.93427247 -0.1832602 C94.90253129 -0.17810596 98.87009776 -0.18290151 102.83825111 -0.21422577 C106.57430499 -0.24251665 110.30881101 -0.23613184 114.04482269 -0.20450974 C116.04732457 -0.19568906 118.04988888 -0.22097174 120.05223083 -0.24777222 C133.99617905 -0.05574982 144.95655751 7.11352694 154.76049805 16.67871094 C169.00198102 32.72006537 173.247992 50.4565367 173.1940918 71.35449219 C173.19866961 72.93426229 173.20397983 74.51403042 173.2099762 76.09379578 C173.21884611 79.38577422 173.21655583 82.6775093 173.20654297 85.96948242 C173.19507623 90.14134613 173.21526066 94.31236039 173.24446011 98.48411274 C173.26300843 101.74199054 173.26249284 104.99967186 173.25682259 108.25758934 C173.25667155 109.79343034 173.26253045 111.32928661 173.27511406 112.86507607 C173.42321827 133.90047824 167.79579667 152.26811625 152.76049805 167.67871094 C133.65236723 184.64287196 113.64475389 186.15171447 89.3347168 186.11230469 C86.85813759 186.11687418 84.38155965 186.12218202 81.90498352 186.12818909 C76.72989735 186.13709087 71.55496574 186.13473099 66.37988281 186.12475586 C59.78677066 186.11327845 53.19419511 186.13347476 46.60115337 186.162673 C41.49036841 186.18112486 36.37970987 186.18072452 31.26889992 186.17503548 C28.83991558 186.17488332 26.41092208 186.18083934 23.98196983 186.19332695 C-0.04430857 186.29945641 -20.21441567 183.26483012 -38.23950195 165.67871094 C-52.48098492 149.6373565 -56.7269959 131.90088518 -56.6730957 111.00292969 C-56.67767352 109.42315958 -56.68298374 107.84339145 -56.6889801 106.2636261 C-56.69785002 102.97164766 -56.69555973 99.67991258 -56.68554688 96.38793945 C-56.67408014 92.21607574 -56.69426457 88.04506148 -56.72346401 83.87330914 C-56.74201234 80.61543133 -56.74149675 77.35775002 -56.73582649 74.09983253 C-56.73567546 72.56399153 -56.74153436 71.02813527 -56.75411797 69.49234581 C-56.902073 48.47812999 -51.29076051 30.05717077 -36.23950195 14.67871094 C-32.4211387 11.36602282 -28.51629654 8.37395604 -24.23950195 5.67871094 C-23.57695813 5.25892849 -22.91441431 4.83914604 -22.2317934 4.40664291 C-14.8571675 0.20454579 -8.36167633 -0.04490769 0 0 Z M-15.95825195 41.74902344 C-22.96780296 51.61049961 -23.70585843 60.94156426 -23.6730957 72.82714844 C-23.67766768 74.29009236 -23.68297624 75.75303415 -23.6889801 77.2159729 C-23.69787228 80.2703732 -23.69553355 83.32451151 -23.68554688 86.37890625 C-23.67407139 90.26442412 -23.69426582 94.14903118 -23.72346401 98.03442955 C-23.74194362 101.05278121 -23.74151024 104.07091939 -23.73582649 107.08931351 C-23.73567466 108.5204356 -23.741603 109.95157346 -23.75411797 111.38264084 C-23.83996561 122.80743508 -22.40248266 132.8177572 -14.99731445 141.89746094 C-7.41875808 149.57706473 1.89798708 152.97877557 12.54844666 153.09640503 C13.4993367 153.09190338 14.45022675 153.08740173 15.42993164 153.08276367 C16.97084724 153.09305855 16.97084724 153.09305855 18.54289246 153.1035614 C21.91505024 153.12175737 25.28673953 153.11800179 28.65893555 153.11230469 C31.01868845 153.11687016 33.37844003 153.12217683 35.7381897 153.12818909 C40.6756939 153.13710627 45.61303623 153.13471309 50.55053711 153.12475586 C56.85728926 153.11327259 63.16348097 153.13347563 69.47015953 153.162673 C74.34141552 153.18107796 79.21253829 153.18073385 84.08382034 153.17503548 C86.40808523 153.17488277 88.73235944 153.1808853 91.05659103 153.19332695 C94.31550317 153.20831475 97.57339376 153.1975018 100.83227539 153.18041992 C101.77911697 153.19008789 102.72595856 153.19975586 103.70149231 153.2097168 C113.82244796 153.09942466 123.45994285 149.88320619 130.76049805 142.67871094 C139.21403282 132.49604405 140.22966272 122.43460758 140.1940918 109.53027344 C140.19866378 108.06732951 140.20397234 106.60438772 140.2099762 105.14144897 C140.21886838 102.08704867 140.21652965 99.03291036 140.20654297 95.97851562 C140.19506748 92.09299775 140.21526192 88.20839069 140.24446011 84.32299232 C140.26293972 81.30464067 140.26250633 78.28650249 140.25682259 75.26810837 C140.25667075 73.83698628 140.26259909 72.40584841 140.27511406 70.97478104 C140.3609617 59.54998679 138.92347876 49.53966467 131.51831055 40.45996094 C123.93975417 32.78035714 114.62300901 29.37864631 103.97254944 29.26101685 C103.02165939 29.26551849 102.07076935 29.27002014 101.09106445 29.2746582 C99.55014885 29.26436333 99.55014885 29.26436333 97.97810364 29.25386047 C94.60594585 29.2356645 91.23425656 29.23942009 87.86206055 29.24511719 C85.50230764 29.24055171 83.14255606 29.23524505 80.7828064 29.22923279 C75.8453022 29.2203156 70.90795986 29.22270878 65.97045898 29.23266602 C59.66370683 29.24414928 53.35751513 29.22394624 47.05083656 29.19474888 C42.17958058 29.17634391 37.3084578 29.17668802 32.43717575 29.1823864 C30.11291086 29.18253911 27.78863665 29.17653657 25.46440506 29.16409492 C22.20549292 29.14910712 18.94760233 29.15992008 15.6887207 29.17700195 C14.74187912 29.16733398 13.79503754 29.15766602 12.81950378 29.14770508 C1.76932188 29.26812337 -8.77681757 33.0986593 -15.95825195 41.74902344 Z " fill="#2064FF" transform="translate(428.239501953125,6.3212890625)"/>
</svg>
